Storyline

What if everything you love was taken from you in the blink of an eye? "The Host" is the next epic love story from the creator of the "Twilight Saga," worldwide bestselling author, Stephenie Meyer. When an unseen enemy threatens mankind by taking over their bodies and erasing their memories, Melanie Stryder (Saoirse Ronan) will risk everything to protect the people she cares most about - Jared (Max Irons), Ian (Jake Abel), her brother Jamie (Chandler Canterbury) and her Uncle Jeb (William Hurt) , proving that love can conquer all in a dangerous new world.

Action | Adventure | Romance - Saoirse Ronan, Diane Kruger

---------------------------------------------------------------

The Host (2013) HDrip.x264-OmikronTV MEDIA INFO

General
Complete name                            : D:UploadsThe Host (2013) HDrip.x264-OmikronTVThe Host (2013).mp4
Format                                   : MPEG-4
Format profile                           : Base Media / Version 2
Codec ID                                 : mp42
File size                                : 648 MiB
Duration                                 : 2h 10mn
Overall bit rate mode                    : Variable
Overall bit rate                         : 694 Kbps


Video
ID                                       : 1
Format                                   : AVC
Format/Info                              : Advanced Video Codec
Format profile                           : Main@L3.0
Format settings, CABAC                   : Yes
Format settings, ReFrames                : 2 frames
Codec ID                                 : avc1
Codec ID/Info                            : Advanced Video Coding
Duration                                 : 2h 10mn
Bit rate mode                            : Variable
Bit rate                                 : 610 Kbps
Maximum bit rate                         : 3 455 Kbps
Width                                    : 640 pixels
Height                                   : 480 pixels
Display aspect ratio                     : 4:3
Original display aspect ratio            : 16:9
Frame rate mode                          : Constant
Frame rate                               : 25.000 fps
Standard                                 : PAL
Color space                              : YUV
Chroma subsampling                       : 4:2:0
Bit depth                                : 8 bits
Scan type                                : Progressive
Bits/(Pixel*Frame)                       : 0.079
Stream size                              : 570 MiB (88%)
Language                                 : English


Audio
ID                                       : 2
Format                                   : AAC
Format/Info                              : Advanced Audio Codec
Format profile                           : LC
Codec ID                                 : 40
Duration                                 : 2h 10mn
Bit rate mode                            : Variable
Bit rate                                 : 80.0 Kbps
Maximum bit rate                         : 92.5 Kbps
Channel(s)                               : 2 channels
Channel positions                        : Front: L R
Sampling rate                            : 48.0 KHz
Compression mode                         : Lossy
Stream size                              : 74.7 MiB (12%)
Language                                 : English


